<mxfile host="app.diagrams.net" modified="2024-03-27T16:41:16.726Z" agent="Mozilla/5.0 (Windows NT 10.0; Win64; x64) AppleWebKit/537.36 (KHTML, like Gecko) Chrome/123.0.0.0 Safari/537.36" etag="WPfXaOB3qtPmAQC-pS-e" version="24.0.0" type="github">
  <diagram id="TEUiNxYTieck04TVwxDP" name="Page-1">
    <mxGraphModel dx="1221" dy="710" grid="1" gridSize="10" guides="1" tooltips="1" connect="1" arrows="1" fold="1" page="1" pageScale="1" pageWidth="850" pageHeight="1100" math="0" shadow="0">
      <root>
        <mxCell id="0" />
        <mxCell id="1" parent="0" />
      </root>
    </mxGraphModel>
  </diagram>
</mxfile>
